<?xml version="1.0" encoding="UTF-8"?>
<svg id="Layer_2" data-name="Layer 2" xmlns="http://www.w3.org/2000/svg" xmlns:xlink="http://www.w3.org/1999/xlink" viewBox="0 0 29.53 27.68">
  <defs>
    <style>
      .cls-1 {
        fill: #ebe9f7;
      }

      .cls-2 {
        fill: #a5a0c2;
      }

      .cls-3, .cls-4, .cls-5, .cls-6 {
        fill: none;
      }

      .cls-3, .cls-5, .cls-6 {
        stroke: #b49eba;
        stroke-linecap: round;
        stroke-linejoin: round;
        stroke-width: .25px;
      }

      .cls-7 {
        fill: url(#linear-gradient);
      }

      .cls-8 {
        fill: #a5a1be;
      }

      .cls-4 {
        stroke: #fff;
        stroke-miterlimit: 10;
        stroke-width: .35px;
      }

      .cls-9 {
        fill: #b49eba;
      }

      .cls-5 {
        stroke-dasharray: 1.03 1.03;
      }

      .cls-10 {
        fill: #fefefc;
      }

      .cls-6 {
        stroke-dasharray: .98 .98;
      }

      .cls-11 {
        fill: #dedaf3;
      }
    </style>
    <linearGradient id="linear-gradient" x1="16" y1="9.97" x2="16.07" y2="18.32" gradientUnits="userSpaceOnUse">
      <stop offset="0" stop-color="#ffc1d1"/>
      <stop offset=".2" stop-color="#f9c4d4"/>
      <stop offset=".45" stop-color="#e9d0dc"/>
      <stop offset=".73" stop-color="#cfe3ea"/>
      <stop offset="1" stop-color="#b0fafc"/>
    </linearGradient>
  </defs>
  <g id="Layer_1-2" data-name="Layer 1">
    <g>
      <g>
        <line class="cls-3" x1="26.65" y1="8.03" x2="26.64" y2="8.53"/>
        <line class="cls-6" x1="26.63" y1="9.5" x2="26.55" y2="18.78"/>
        <line class="cls-3" x1="26.54" y1="19.27" x2="26.54" y2="19.77"/>
      </g>
      <g>
        <line class="cls-3" x1="16.07" y1=".12" x2="16.06" y2=".62"/>
        <line class="cls-6" x1="16.05" y1="1.6" x2="15.97" y2="10.88"/>
        <line class="cls-3" x1="15.96" y1="11.37" x2="15.96" y2="11.86"/>
      </g>
      <g>
        <line class="cls-3" x1="3.01" y1=".19" x2="3" y2=".69"/>
        <line class="cls-5" x1="2.99" y1="1.72" x2="2.9" y2="13.59"/>
        <line class="cls-3" x1="2.9" y1="14.1" x2="2.89" y2="14.6"/>
      </g>
      <g>
        <g>
          <path class="cls-7" d="M16.01,20.69s-.08-.02-.1-.05c-.15-.19-3.68-4.75-4.38-7.21-.39-1.36-.34-2.42.14-3.14.37-.55.97-.88,1.79-.98.19-.02.38-.03.55-.03,1.12,0,1.77.43,2,.62.23-.19.88-.62,2-.62.17,0,.35.01.55.03.82.1,1.43.43,1.79.98.48.72.53,1.78.14,3.14-.7,2.46-4.22,7.01-4.37,7.21-.03.03-.06.05-.1.05ZM15.89,13.73c-.6,0-1.08.48-1.08,1.08s.48,1.08,1.08,1.08,1.08-.49,1.08-1.08-.48-1.08-1.08-1.08Z"/>
          <path class="cls-9" d="M18.01,9.41c.17,0,.34,0,.53.03,1.73.21,2.52,1.5,1.82,3.95-.7,2.46-4.35,7.16-4.35,7.16,0,0-3.66-4.7-4.35-7.16-.7-2.46.09-3.74,1.82-3.95.19-.02.37-.03.53-.03,1.36,0,2,.67,2,.67,0,0,.63-.67,1.99-.67M15.89,16.03c.67,0,1.21-.54,1.21-1.21s-.54-1.21-1.21-1.21-1.21.54-1.21,1.21.54,1.21,1.21,1.21M18.01,9.15c-1.04,0-1.7.37-2,.59-.3-.22-.95-.59-2-.59-.18,0-.36.01-.56.03-.86.1-1.5.45-1.89,1.04-.5.75-.55,1.85-.16,3.25.7,2.48,4.25,7.06,4.4,7.25.05.06.13.1.21.1h0c.08,0,.16-.04.21-.1.15-.19,3.69-4.77,4.4-7.25.4-1.4.34-2.49-.16-3.25-.39-.58-1.02-.93-1.89-1.04-.2-.02-.39-.03-.56-.03h0ZM15.89,15.77c-.52,0-.95-.43-.95-.95s.43-.95.95-.95.95.43.95.95-.43.95-.95.95h0Z"/>
        </g>
        <path class="cls-4" d="M18.65,10.7c-1.27-.59-2.63.18-2.63.18,0,0-1.36-.77-2.63-.18-1.27.59-1.02,2.3-.07,4.12.95,1.82,2.71,4.04,2.71,4.04,0,0,1.76-2.22,2.71-4.04.95-1.82,1.2-3.52-.07-4.12Z"/>
      </g>
      <g>
        <g>
          <path class="cls-11" d="M26.55,27.6s-.08-.04-.09-.08c0-.01-.1-1.54-.8-4.38-.69-2.79-1.93-3.25-1.94-3.26-.03-.01-.06-.04-.06-.08,0-.04.02-.07.06-.08,2.34-1.02,2.74-3.52,2.74-3.54,0-.04.04-.07.09-.07s.08.03.09.07c0,.03.41,2.55,2.75,3.54.03.01.05.05.05.08s-.03.07-.06.08c-.01,0-1.25.46-1.94,3.26-.7,2.85-.8,4.37-.8,4.38,0,.05-.04.08-.09.08h0Z"/>
          <path class="cls-9" d="M26.55,16.18s.39,2.59,2.8,3.61c0,0-1.29.43-2,3.32-.71,2.89-.8,4.4-.8,4.4,0,0-.09-1.51-.8-4.4-.71-2.89-2-3.32-2-3.32.02,0,.03-.01.05-.02,2.37-1.04,2.75-3.59,2.75-3.59M26.55,16.01h0c-.09,0-.16.06-.17.15,0,.02-.4,2.47-2.65,3.46l.02.18-.06-.16c-.07.03-.11.09-.11.17,0,.07.05.14.12.16.01,0,1.21.46,1.88,3.19.7,2.84.79,4.35.8,4.37,0,.09.08.16.17.16h0c.09,0,.17-.07.17-.16,0-.02.1-1.53.8-4.37.67-2.74,1.87-3.19,1.89-3.19.07-.02.11-.09.12-.16,0-.07-.04-.14-.11-.17-2.29-.97-2.69-3.45-2.69-3.48-.01-.09-.09-.15-.17-.15h0Z"/>
        </g>
        <path class="cls-1" d="M26.56,18.6l-1.05,1.19-1.71-.02c2.37-1.04,2.75-3.59,2.75-3.59v2.42Z"/>
        <path class="cls-8" d="M26.55,24.78v2.73s-.09-1.51-.8-4.4c-.71-2.89-2-3.32-2-3.32h1.16s1.45,1.22,1.56,1.65c.1.43.08,3.34.08,3.34Z"/>
        <path class="cls-10" d="M26.55,17.61s-.52,1.71-2.01,2.21c0,0,1.54.26,2.01,4.96.47-4.71,2.01-4.96,2.01-4.96-1.49-.5-2.01-2.21-2.01-2.21Z"/>
        <path class="cls-2" d="M26.95,19.4c-.38-.46-.4-1.7-.4-1.7,0,0-.02,1.25-.4,1.7s-1.14.5-1.14.5c0,0,.88.06,1.18.52s.36,1.83.36,1.83c0,0,.06-1.37.36-1.83s1.18-.52,1.18-.52c0,0-.76-.04-1.14-.5Z"/>
        <circle class="cls-10" cx="26.57" cy="19.77" r=".29"/>
      </g>
      <g>
        <g>
          <path class="cls-11" d="M2.95,24.59s-.08-.04-.09-.08c0-.01-.1-1.54-.8-4.38-.69-2.79-1.93-3.25-1.94-3.25-.03-.01-.06-.04-.06-.08,0-.04.02-.07.06-.08,2.34-1.02,2.74-3.52,2.74-3.54,0-.04.04-.07.09-.07s.08.03.09.07c0,.03.41,2.55,2.75,3.54.03.01.05.05.05.08,0,.04-.02.07-.06.08-.01,0-1.25.46-1.94,3.25-.7,2.85-.8,4.37-.8,4.38,0,.05-.04.08-.09.08h0Z"/>
          <path class="cls-9" d="M2.95,13.17s.39,2.59,2.8,3.61c0,0-1.29.43-2,3.32-.71,2.89-.8,4.4-.8,4.4,0,0-.09-1.51-.8-4.4-.71-2.89-2-3.32-2-3.32.02,0,.03-.01.05-.02,2.37-1.04,2.75-3.59,2.75-3.59M2.95,13h0c-.09,0-.16.06-.17.15,0,.02-.4,2.47-2.65,3.46-.07.03-.13.1-.13.18s.03.15.1.17c.01,0,1.21.46,1.88,3.19.7,2.84.79,4.35.8,4.37,0,.09.08.16.17.16h0c.09,0,.17-.07.17-.16,0-.02.1-1.53.8-4.37.67-2.74,1.87-3.19,1.89-3.19.07-.02.11-.09.12-.16,0-.07-.04-.14-.11-.17-2.29-.97-2.69-3.45-2.69-3.48-.01-.09-.09-.15-.17-.15h0Z"/>
        </g>
        <path class="cls-1" d="M2.96,15.59l-1.05,1.19-1.71-.02c2.37-1.04,2.75-3.59,2.75-3.59v2.42Z"/>
        <path class="cls-8" d="M2.95,21.78v2.73s-.09-1.51-.8-4.4c-.71-2.89-2-3.32-2-3.32h1.16s1.45,1.22,1.56,1.65c.1.43.08,3.34.08,3.34Z"/>
        <path class="cls-10" d="M2.95,14.6s-.52,1.71-2.01,2.21c0,0,1.54.26,2.01,4.96.47-4.71,2.01-4.96,2.01-4.96-1.49-.5-2.01-2.21-2.01-2.21Z"/>
        <path class="cls-2" d="M3.35,16.39c-.38-.46-.4-1.7-.4-1.7,0,0-.02,1.25-.4,1.7s-1.14.5-1.14.5c0,0,.88.06,1.18.52s.36,1.83.36,1.83c0,0,.06-1.37.36-1.83s1.18-.52,1.18-.52c0,0-.76-.04-1.14-.5Z"/>
        <circle class="cls-10" cx="2.96" cy="16.76" r=".29"/>
      </g>
    </g>
  </g>
</svg>