<?xml version="1.0" encoding="UTF-8"?>
<svg id="Layer_2" data-name="Layer 2" xmlns="http://www.w3.org/2000/svg" xmlns:xlink="http://www.w3.org/1999/xlink" viewBox="0 0 27.98 27.92">
  <defs>
    <style>
      .cls-1 {
        fill: url(#linear-gradient-7);
      }

      .cls-2 {
        fill: url(#linear-gradient-5);
      }

      .cls-3 {
        fill: url(#linear-gradient-6);
      }

      .cls-4 {
        fill: url(#linear-gradient-4);
      }

      .cls-5 {
        fill: url(#linear-gradient-3);
      }

      .cls-6 {
        fill: url(#linear-gradient-2);
      }

      .cls-7 {
        fill: url(#linear-gradient);
      }

      .cls-8 {
        fill: #ffbafa;
      }
    </style>
    <linearGradient id="linear-gradient" x1="49.95" y1="7.79" x2="51" y2="3.13" gradientTransform="translate(-24.71 17.94) rotate(3.46)" gradientUnits="userSpaceOnUse">
      <stop offset="0" stop-color="#c7b4e2"/>
      <stop offset=".37" stop-color="#c9b6e3"/>
      <stop offset=".59" stop-color="#d1bee7"/>
      <stop offset=".77" stop-color="#dfcdee"/>
      <stop offset=".93" stop-color="#f2e1f8"/>
      <stop offset="1" stop-color="#fdecfe"/>
    </linearGradient>
    <linearGradient id="linear-gradient-2" x1="29.55" y1="-6.58" x2="50.68" y2="2.8" xlink:href="#linear-gradient"/>
    <linearGradient id="linear-gradient-3" x1="22.19" y1="-7.67" x2="48.66" y2="6.5" xlink:href="#linear-gradient"/>
    <linearGradient id="linear-gradient-4" x1="26.97" y1="-16.59" x2="53.44" y2="-2.42" xlink:href="#linear-gradient"/>
    <linearGradient id="linear-gradient-5" x1="35.62" y1="3.36" x2="37.49" y2="4.49" gradientTransform="translate(-24.71 17.94) rotate(3.46)" gradientUnits="userSpaceOnUse">
      <stop offset="0" stop-color="#ffd6fd"/>
      <stop offset=".61" stop-color="#fed8fd"/>
      <stop offset=".97" stop-color="#fce0fd"/>
      <stop offset="1" stop-color="#fce2fe"/>
    </linearGradient>
    <linearGradient id="linear-gradient-6" x1="37.53" y1="-1.19" x2="47.79" y2="-3.18" xlink:href="#linear-gradient-5"/>
    <linearGradient id="linear-gradient-7" x1="30.59" y1="-8.78" x2="32.2" y2="-6.7" xlink:href="#linear-gradient-5"/>
  </defs>
  <g id="Layer_1-2" data-name="Layer 1">
    <g>
      <path class="cls-7" d="M26.89,23.08s-.83,3.67-4.51,4.83c0,0,1.44.16,3.47-.78,0,0,.49.86,1.54.17s.23-3.21-.49-4.22Z"/>
      <path class="cls-6" d="M27.95,18.74s.65,3.81-3.98,6.72-6.45.34-8.03,1.13-4.71,2.42-6.36-1.4c-1.65-3.82-.45-8.2-1.29-9.09s-1.16.5-.41,1.82c0,0-1.62-.63-1.6-2.93s-.43-3.88-2.09-4.22-2.61-.99-2.8-2.47-.18-1.52-.91-3.05S-.19,1.64.88,0c0,0-.29,3.79,1.34,4.75s2.61,1.12,3.31,2.42,1.14,1.31,2.6,2.14,5.92,4.25,6.74,3.87-.4-2.68-2.3-2.85-2.81-.1-3.68-1.55c0,0,1.05,1.31,2.69.52s1.2-2.45,3.13-2.07,3.16,3.44,6.8,5.1,5.48,1.69,6.43,6.42Z"/>
      <path class="cls-5" d="M3.25,17.41s.82-1.12.59-2.51-.81-.77-1.7-1.17-1.41-2.86-1.41-2.86c0,0-.68,3.24.1,3.83s1.51.1,1.9.88.52,1.82.52,1.82Z"/>
      <path class="cls-4" d="M5.89,5.72s.59-.85.14-1.82-1.41.05-2.01-.71-.6-1.54-.6-1.54c0,0-.4,1.76.57,3.06s1.9,1.01,1.9,1.01Z"/>
      <g>
        <path class="cls-2" d="M12.1,25.53c-.42,0-.79-.1-1.12-.29-1.05-.64-1.01-2.67-.91-3.72.35,1.06,1.36,3.09,4.06,3.41-.43.24-1.23.61-2.04.61Z"/>
        <path class="cls-8" d="M10.16,22.08c.46,1.06,1.47,2.51,3.58,2.9-.44.2-1.04.42-1.64.42-.4,0-.75-.09-1.05-.28-.8-.49-.94-1.91-.89-3.04M10.04,20.85s-.65,3.55.88,4.48c.37.23.78.31,1.18.31,1.24,0,2.44-.82,2.44-.82-3.97-.2-4.5-3.97-4.5-3.97h0Z"/>
      </g>
      <g>
        <path class="cls-3" d="M16.82,23.71c-.3,0-.6-.03-.9-.08-2.01-.35-2.37-2.11-2.38-2.13,0-.04-.04-.08-.08-.09-.04-.01-3.6-1.36-2.93-7.35.52,1.11,2.08,4.05,3.89,4.05.09,0,.18,0,.27-.02,1.04-.17,1.71-.92,2.36-1.63.79-.88,1.62-1.79,3.15-1.79,2.12,0,3.54.87,4.12,1.6.32.4.44.81.35,1.18-.13.56-.57.88-1.12,1.28-.64.46-1.43,1.04-2.08,2.22-.93,1.71-2.72,2.77-4.67,2.77Z"/>
        <path class="cls-8" d="M10.62,14.5c.66,1.31,2.12,3.73,3.81,3.73.1,0,.19,0,.29-.02,1.08-.18,1.76-.94,2.43-1.67.81-.9,1.58-1.75,3.07-1.75,2.06,0,3.45.84,4.01,1.55.2.26.43.65.33,1.07-.12.52-.52.81-1.07,1.21-.65.47-1.46,1.06-2.12,2.26-.91,1.67-2.66,2.7-4.55,2.7-.29,0-.59-.03-.88-.08-1.91-.33-2.26-1.96-2.27-2.03-.02-.09-.08-.16-.16-.19-.14-.05-3.35-1.28-2.89-6.78M10.47,13.6c-.93,6.55,2.96,7.92,2.96,7.92,0,0,.36,1.86,2.48,2.23.3.05.61.08.92.08,1.85,0,3.75-.95,4.77-2.83,1.2-2.2,2.91-2.25,3.21-3.53.3-1.29-1.69-2.92-4.58-2.93,0,0-.01,0-.02,0-2.87,0-3.3,3.05-5.52,3.42-.08.01-.17.02-.25.02-2.12,0-3.96-4.38-3.96-4.38h0Z"/>
      </g>
      <g>
        <path class="cls-1" d="M7.5,13.88c-.08-.49-.34-1.53-1.16-2.22-.66-.55-.78-1.39-.79-1.91.36.81.87,1.17,1.41,1.55.25.17.5.35.74.58.59.56.08,1.56-.19,2Z"/>
        <path class="cls-8" d="M5.69,10.22c.35.55.78.86,1.21,1.16.24.17.49.35.73.57.45.43.18,1.18-.08,1.65-.13-.56-.43-1.42-1.14-2.02-.45-.38-.64-.91-.72-1.36M5.48,9.26s-.25,1.59.8,2.47c1.06.89,1.16,2.42,1.16,2.42,0,0,1.17-1.55.33-2.35-.84-.8-1.8-.99-2.29-2.55h0Z"/>
      </g>
    </g>
  </g>
</svg>