<?xml version="1.0" encoding="UTF-8"?>
<svg id="Layer_2" data-name="Layer 2" xmlns="http://www.w3.org/2000/svg" xmlns:xlink="http://www.w3.org/1999/xlink" viewBox="0 0 96.75 45.75">
  <defs>
    <style>
      .cls-1 {
        fill: #918c9c;
      }

      .cls-2 {
        fill: url(#linear-gradient);
      }
    </style>
    <linearGradient id="linear-gradient" x1=".33" y1="22.88" x2="96.42" y2="22.88" gradientUnits="userSpaceOnUse">
      <stop offset="0" stop-color="#dad5e7"/>
      <stop offset=".23" stop-color="#e7e4ef"/>
      <stop offset=".49" stop-color="#fcfcfc"/>
      <stop offset=".74" stop-color="#edebf3"/>
      <stop offset="1" stop-color="#dad5e7"/>
    </linearGradient>
  </defs>
  <g id="Layer_1-2" data-name="Layer 1">
    <g>
      <path class="cls-2" d="M40.67,45.42c-5.75,0-10.23-.31-14.51-1-5.01-.81-9.6-2.17-14.06-4.19-1.98-.9-3.94-2.09-6.36-3.88-.89-.66-1.79-1.45-2.83-2.5-.93-.94-1.75-1.96-2.43-3.04-.28-.45-.15-1.04.29-1.32.16-.1.34-.16.52-.16.3,0,.59.15.8.41.79,1.1,1.49,1.92,2.27,2.64.81.75,1.7,1.55,2.68,2.22,1.59,1.09,3.72,2.48,6.08,3.45,4.29,1.77,8.72,2.93,13.52,3.55,3.01.39,6.26.57,9.96.57,1.4,0,2.79-.03,4.19-.07,2.3-.07,4.67-.28,7.03-.63,1.91-.28,4.42-.7,6.93-1.4,9.27-2.6,17.45-7.04,24.31-13.2,3.42-3.07,6-7.24,8.16-10.91,1.92-3.27,3.18-9.42,3.63-12.54l.05-.36c0-.05,0-.11.02-.19,0,0,.03-.18.03-.19.04-.27.07-.43.16-.51.44-1.16,1.38-1.85,2.54-1.85.12,0,.24,0,.36.02.76.09,1.42.46,1.86,1.04.44.57.62,1.29.52,2.03-.86,5.86-2.38,10.68-4.63,14.75-2.7,4.87-5.8,8.8-9.48,12.01-7.33,6.41-15.79,10.71-26.62,13.54-2.41.63-4.69.92-7.11,1.22l-.29.04c-2.38.3-4.82.44-7.45.45h-.13Z"/>
      <path class="cls-1" d="M93.64.66c.11,0,.21,0,.32.02,1.37.16,2.29,1.35,2.09,2.69-.75,5.13-2.08,10.11-4.6,14.64s-5.52,8.53-9.41,11.93c-7.8,6.82-16.55,10.87-26.48,13.47-2.49.65-4.89.94-7.36,1.25-2.48.31-4.93.44-7.41.44-.04,0-.09,0-.13,0-4.86,0-9.64-.22-14.46-.99-4.86-.78-9.47-2.13-13.97-4.16-2.25-1.02-4.31-2.38-6.3-3.85-.99-.74-1.9-1.57-2.79-2.47s-1.7-1.9-2.39-2.98c-.18-.28-.11-.67.19-.86.11-.07.23-.1.34-.1.2,0,.39.1.54.28,0,.01.02.03.03.05.68.95,1.41,1.83,2.27,2.63s1.74,1.58,2.72,2.25c1.95,1.34,3.95,2.58,6.14,3.48,4.4,1.81,8.88,2.97,13.6,3.57,3.33.43,6.66.58,10.01.58,1.4,0,2.8-.03,4.2-.07,2.36-.07,4.73-.29,7.07-.64,2.34-.35,4.66-.76,6.97-1.41,9.21-2.58,17.41-6.96,24.44-13.27,3.51-3.15,6.12-7.41,8.22-10.99,2.1-3.58,3.34-10.31,3.67-12.66.05-.33.08-.57.1-.73.3-1.29,1.18-2.08,2.37-2.08M91.31,2.45s-.01.08-.04.3c0,.02,0,.04-.01.05.02-.17.05-.35.05-.35M91.28,2.67s0,.03-.02.11c0-.04.02-.11.02-.11M91.26,2.78s0,.03,0,.03c0,0,0,0,0,0,0,0,0,0,0,0-.02.14-.04.26-.04.26,0,0,0-.04.02-.14,0-.06.02-.11.02-.15M93.64,0c-1.31,0-2.36.77-2.85,2.04-.11.16-.15.37-.18.58,0,.02,0,.04-.01.07l-.02.15c0,.06-.02.13-.02.2l-.05.35c-.44,3.09-1.69,9.19-3.59,12.42-2.14,3.65-4.71,7.8-8.09,10.83-6.83,6.13-14.96,10.54-24.18,13.12-2.5.7-4.99,1.11-6.89,1.39-2.35.35-4.7.56-6.99.63-1.51.05-2.88.07-4.18.07-3.68,0-6.93-.19-9.92-.57-4.77-.61-9.16-1.76-13.43-3.53-2.33-.96-4.44-2.33-6.02-3.42-.97-.67-1.84-1.45-2.64-2.19-.76-.71-1.45-1.51-2.19-2.53,0-.02-.03-.05-.05-.07-.27-.34-.65-.53-1.06-.53-.24,0-.48.07-.7.21-.6.38-.78,1.18-.4,1.78.7,1.1,1.53,2.14,2.48,3.09,1.05,1.06,1.96,1.86,2.87,2.53,2.44,1.81,4.42,3.02,6.42,3.92,4.48,2.02,9.1,3.4,14.14,4.21,4.3.69,8.79,1,14.56,1h.13c2.64,0,5.09-.15,7.49-.45l.28-.04c2.43-.3,4.73-.59,7.17-1.23,10.88-2.84,19.38-7.16,26.75-13.61,3.71-3.24,6.83-7.2,9.55-12.1,2.28-4.1,3.8-8.96,4.67-14.86.12-.82-.08-1.63-.58-2.28-.5-.65-1.24-1.07-2.09-1.17-.14-.02-.27-.02-.4-.02h0Z"/>
    </g>
  </g>
</svg>