<?xml version="1.0" encoding="UTF-8"?>
<svg xmlns="http://www.w3.org/2000/svg" viewBox="0 0 43.55 23.96">
  <defs>
    <style>
      .cls-1 {
        opacity: .5;
      }

      .cls-1, .cls-2 {
        fill: #fff;
      }

      .cls-1, .cls-3, .cls-4 {
        mix-blend-mode: overlay;
      }

      .cls-5 {
        isolation: isolate;
      }

      .cls-6 {
        fill: #cbafdf;
      }

      .cls-7 {
        fill: #f9aef5;
      }

      .cls-3, .cls-8 {
        fill: #ffebee;
      }

      .cls-4 {
        opacity: .3;
      }
    </style>
  </defs>
  <g class="cls-5">
    <g id="Layer_2" data-name="Layer 2">
      <g id="Layer_1-2" data-name="Layer 1">
        <g>
          <g>
            <path class="cls-2" d="M10.93,23.46c-.67,0-1.29-.17-1.87-.5-2.31-1.34-2.81-3.44-2.91-4.5-.16.02-.35.04-.56.04h0c-.86,0-2.14-.27-3.36-1.54-.39-.4-.76-.9-1.11-1.5-.67-1.17-.79-2.22-.37-3.14.6-1.29,2.13-1.9,2.98-2.15-.65-1.97-.96-5.36,1.76-7.02.76-.46,1.54-.7,2.33-.7s1.46.24,1.93.5c.47-.88,1.56-2.24,3.76-2.43.14-.01.29-.02.42-.02,3.35,0,4.77,3.44,5.18,4.71.34-.06.84-.12,1.39-.12,2.21,0,3.56.96,3.82,2.71.16,1.06.07,2.07-.26,3-.48,1.38-1.4,2.09-2.01,2.42.55.91,1.4,2.9.33,5.35-.93,2.13-3.36,2.57-5.24,2.57-.61,0-1.12-.05-1.44-.09-.12.12-.27.26-.46.43-.85.74-2.52,1.96-4.31,1.96Z"/>
            <path class="cls-7" d="M13.92,1c3.68,0,4.83,4.79,4.83,4.79,0,0,.79-.19,1.74-.19,1.35,0,3.05.39,3.32,2.28.17,1.15.01,2.06-.24,2.76-.67,1.94-2.3,2.37-2.3,2.37,0,0,1.97,2.3.63,5.37-.83,1.91-3.15,2.27-4.78,2.27-.77,0-1.38-.08-1.62-.12-.1.11-.31.32-.61.58,0,0,0,0-.01,0-.85.74-2.37,1.83-3.96,1.83-.54,0-1.09-.13-1.62-.43-2.89-1.68-2.67-4.69-2.67-4.69,0,0-.41.16-1.04.16-.79,0-1.91-.25-3-1.38-.36-.37-.71-.83-1.04-1.4-2.17-3.78,2.84-4.68,2.84-4.68,0,0-2.05-4.86,1.36-6.94.76-.47,1.46-.63,2.07-.63,1.06,0,1.83.49,2.14.72.2-.52,1.08-2.45,3.59-2.66.13-.01.26-.02.38-.02M13.92,0h0c-.15,0-.31,0-.47.02-2.11.18-3.29,1.35-3.91,2.28-.47-.2-1.06-.35-1.73-.35-.88,0-1.75.26-2.59.77-2.76,1.69-2.7,4.96-2.12,7.12-.95.34-2.23,1.02-2.81,2.26-.34.74-.55,1.96.39,3.59.38.65.77,1.17,1.19,1.6,1.34,1.39,2.76,1.68,3.72,1.68.05,0,.09,0,.13,0,.21,1.24.91,3.13,3.08,4.4.65.38,1.37.57,2.12.57,1.84,0,3.51-1.11,4.59-2.05.02-.01.03-.02.04-.03.11-.09.21-.19.31-.28.33.03.76.06,1.26.06,2.87,0,4.89-1.02,5.7-2.87,1-2.31.43-4.25-.13-5.38.64-.44,1.39-1.2,1.82-2.43.36-1.01.45-2.1.28-3.24-.29-1.99-1.86-3.13-4.31-3.13-.39,0-.75.03-1.05.06C18.86,3.09,17.29,0,13.92,0h0Z"/>
          </g>
          <path class="cls-4" d="M6.63,17.83s-.22,3.01,2.68,4.69c2.66,1.54,5.7-1.47,6.2-1.99.74.11,5.18.65,6.4-2.16,1.34-3.07-.63-5.36-.63-5.36,0,0,1.62-.44,2.3-2.37-.82.82-2.06,1.87-3.07,2.05-1.7.29-2.39-.04-3.27-1.34-.88-1.29-3.77-2.17-6.21-.84-2.44,1.33-2.71,3.66-2.79,4.48-.08.82-3.38,3.2-5.65,1.62,1.96,2.04,4.05,1.22,4.05,1.22Z"/>
          <path class="cls-1" d="M1.54,15.21c.34.57.68,1.04,1.04,1.4,1.96,2.04,4.05,1.22,4.05,1.22,0,0-.22,3.01,2.67,4.69,2.1,1.21,4.45-.41,5.58-1.4-1.01.59-3.01,1.5-4.91.91-2.72-.83-2.75-5.02-2.75-5.02,0,0-.56.43-1.86.42-1.29,0-4.15-2.57-3.34-4.44.81-1.87,3.53-2.17,3.59-2.16.06.01-2.58-4.51.08-6.08,2.66-1.57,5.01.53,5.01.53,0,0-.21-3.35,3.09-3.36,3.31,0,4.28,4.37,4.44,4.48.16.11,4.71-.66,4.74,2.29.04,2.95-2.98,4.17-2.98,4.17,0,0,2.39,2.24,1.2,5.02-1.19,2.77-5.7,2.64-5.7,2.64.74.12,5.18.65,6.4-2.15,1.33-3.07-.63-5.37-.63-5.37,0,0,1.62-.44,2.3-2.37.25-.7.41-1.61.24-2.76-.47-3.22-5.07-2.08-5.07-2.08,0,0-1.22-5.12-5.21-4.78-2.51.22-3.39,2.14-3.59,2.66-.49-.37-2.13-1.37-4.21-.1-3.41,2.08-1.36,6.94-1.36,6.94,0,0-5.02.91-2.84,4.68Z"/>
          <g>
            <path class="cls-6" d="M12.06,8.4s0,0,0,0c.38.68.97,1.13,1.64,1.14.12,0,.24-.01.35-.03h0c1.03-.22,1.83-1.45,1.87-2.95.03-1.22-.46-2.27-1.18-2.78h0s0,0,0,0c-.27-.19-.57-.3-.9-.3-1.06-.02-1.97,1.04-2.18,2.46-.03.17-.04.34-.04.52-.02.73.15,1.41.44,1.93Z"/>
            <path class="cls-4" d="M12.07,8.41c.38.68.97,1.13,1.64,1.14,1.19.03,2.19-1.31,2.23-2.99.04-1.68-.9-3.05-2.08-3.08-1.06-.02-1.97,1.04-2.18,2.46,0,0,.87-1.51,1.96-1.06,1.08.45,1.68,2.02,1.09,3.32-.6,1.3-2.05,1.09-2.64.21Z"/>
            <path class="cls-8" d="M14.75,3.78h0,0s0,0,0,0Z"/>
            <path class="cls-8" d="M14.4,5.16c-.1-.32,0-.63.24-.71.24-.08.51.11.62.43.1.32,0,.63-.24.71-.24.08-.51-.11-.62-.43Z"/>
          </g>
          <g>
            <path class="cls-6" d="M10.44,8.93s0,0,0,.01c.1.78-.11,1.48-.64,1.89-.09.07-.2.13-.3.18h0c-.96.44-2.33-.07-3.25-1.26-.74-.96-.98-2.1-.7-2.93h0s0,0,0,0c.11-.31.29-.58.54-.78.84-.65,2.21-.34,3.22.69.12.12.23.25.34.39.45.58.71,1.22.79,1.82Z"/>
            <path class="cls-4" d="M10.44,8.94c.1.78-.11,1.48-.64,1.89-.94.73-2.54.25-3.56-1.08-1.03-1.33-1.09-2.99-.15-3.72.84-.65,2.21-.34,3.22.69,0,0-1.6-.7-2.21.31-.6,1-.16,2.62,1.09,3.32,1.25.69,2.3-.34,2.25-1.4Z"/>
            <path class="cls-8" d="M5.54,6.81h0,0s0,0,0,0Z"/>
            <path class="cls-8" d="M6.63,7.72c-.1-.32-.38-.51-.62-.43-.24.08-.35.4-.24.71.1.32.38.51.62.43.24-.08.35-.4.24-.71Z"/>
          </g>
          <g>
            <path class="cls-6" d="M7.01,14.09s0,0,0,0c.31.55.36,1.14.09,1.61-.05.08-.11.16-.17.23h0c-.59.62-1.77.65-2.82.03-.85-.5-1.37-1.28-1.4-1.99h0s0,0,0,0c-.01-.27.04-.52.17-.75.44-.74,1.55-.91,2.62-.45.13.05.25.12.38.19.51.3.9.7,1.14,1.12Z"/>
            <path class="cls-4" d="M7.01,14.1c.31.55.36,1.14.09,1.61-.49.83-1.83.95-3,.26-1.17-.69-1.72-1.91-1.23-2.74.44-.74,1.55-.91,2.62-.45,0,0-1.41-.04-1.56.89-.15.93.67,2.01,1.81,2.16,1.15.14,1.62-.95,1.26-1.73Z"/>
            <path class="cls-8" d="M2.7,13.97h0,0s0,0,0,0Z"/>
            <path class="cls-8" d="M3.79,14.32c-.17-.2-.44-.27-.59-.14-.15.13-.14.4.03.61.17.21.44.27.59.14.15-.13.14-.4-.03-.61Z"/>
          </g>
          <g>
            <path class="cls-6" d="M18.17,10.42s0,0,0,0c.08.63.39,1.14.88,1.35.09.04.18.06.28.08h0c.84.15,1.81-.53,2.29-1.65.39-.9.34-1.84-.05-2.43h0s0,0,0,0c-.15-.22-.34-.4-.58-.5-.79-.34-1.79.19-2.38,1.19-.07.12-.13.25-.19.38-.23.54-.31,1.1-.25,1.58Z"/>
            <path class="cls-4" d="M18.18,10.43c.08.63.39,1.14.88,1.35.88.38,2.03-.32,2.56-1.57.53-1.25.24-2.56-.64-2.94-.79-.34-1.79.19-2.38,1.19,0,0,1.11-.87,1.79-.21.68.66.66,2.02-.18,2.81-.84.8-1.86.2-2.04-.64Z"/>
            <path class="cls-8" d="M21.57,7.76h0,0s0,0,0,0Z"/>
            <path class="cls-8" d="M20.9,8.69c.02-.27.19-.47.39-.46.2.01.35.24.33.51-.02.27-.19.47-.39.46-.2-.01-.35-.24-.33-.51Z"/>
          </g>
          <g>
            <path class="cls-6" d="M9.07,20.12c.68.65,1.33.83,1.93.76h0c.9-.11,1.68-.8,2.25-1.36.96-.94,2.41-1.42,3.74-1.23.71.1,1.61.18,2.36-.12,0,0,0,0,0,0,.65-.26,1.18-.81,1.37-1.88.2-1.16-.23-1.82-.83-2.22h0c-.61-.41-1.37-.55-1.84-.64-.11-.02-.21-.08-.33-.16h0c-.89-.67-2.08-2.95-5.1-1.93-3.79,1.1-2.65,3.83-3.02,4.75h0c-.02.06-.05.12-.09.16-.2.22-.48.52-.73.89t0,.01c-.54.8-.88,1.88.28,2.99Z"/>
            <path class="cls-4" d="M9.07,20.12c1.69,1.62,3.24.34,4.19-.6.96-.94,2.41-1.42,3.74-1.23,1.33.19,3.33.3,3.73-2.01.2-1.16-.23-1.82-.83-2.22.05.1.9,1.72-.58,2.72-1.52,1.03-2.9-.47-4.85.15-1.94.62-2.13,2.23-3.22,2.68-1.08.45-3.23-.38-2.48-2.48-.54.8-.88,1.88.28,2.99Z"/>
            <path class="cls-4" d="M9.62,16.07c5.77.74,8.12-2.82,8.12-2.82h0c-.89-.67-2.08-2.95-5.1-1.93-3.79,1.1-2.65,3.83-3.02,4.75Z"/>
            <path class="cls-3" d="M12.08,13.73c.11.34.56.49,1.01.35.45-.15.72-.54.6-.88-.11-.34-.56-.49-1.01-.35-.45.15-.72.54-.6.88Z"/>
          </g>
        </g>
        <g>
          <g>
            <path class="cls-2" d="M37.92,23.42c-1.1,0-2.21-.6-2.63-.85-.09.04-.21.08-.35.12-.4.12-.99.27-1.6.27-.92,0-1.65-.33-2.11-.95-.93-1.29-.7-2.55-.5-3.15-.5-.14-1.34-.56-1.78-1.76-.12-.31-.2-.67-.25-1.08-.08-.71.07-1.27.42-1.67.37-.41.96-.62,1.7-.62.21,0,.41.02.57.04.12-1.23.77-3.15,2.65-3.4.15-.02.28-.03.41-.03,1.03,0,1.65.55,1.95.94.34-.27.91-.59,1.68-.59.31,0,.64.06.96.17,1.82.62,2.06,2.69,1.92,3.91.5.13,1.55.48,2.03,1.25.26.42.33.9.18,1.42-.17.61-.46,1.14-.86,1.57-.59.63-1.25.8-1.68.83.08.63.06,1.92-1.11,2.99-.43.39-.97.59-1.61.59Z"/>
            <path class="cls-7" d="M34.45,10.64c1.18,0,1.73.81,1.89,1.09.18-.19.8-.74,1.73-.74.26,0,.55.04.86.15,2.25.77,1.69,3.85,1.69,3.85,0,0,2.78.49,2.26,2.35-.18.67-.49,1.12-.79,1.45-.62.66-1.32.75-1.65.75-.11,0-.18-.01-.18-.01,0,0,.52,1.72-.95,3.08-.41.38-.9.51-1.4.51-1.15,0-2.34-.71-2.6-.88-.08.03-.25.1-.47.17,0,0,0,0,0,0-.39.12-.94.25-1.51.25-.69,0-1.4-.19-1.87-.83-1.17-1.61-.33-3.2-.33-3.2,0,0-1.33-.06-1.91-1.64-.11-.29-.18-.62-.23-1.02-.18-1.66.98-1.96,1.83-1.96.47,0,.84.09.84.09,0,0,.05-3.14,2.41-3.45.13-.02.26-.03.38-.03M34.45,10.04s0,0,0,0c-.14,0-.3,0-.45.03-1.91.25-2.67,2.05-2.87,3.37-.1,0-.2-.01-.31-.01-.84,0-1.5.25-1.93.72-.41.46-.58,1.1-.5,1.89.05.44.14.82.26,1.16.41,1.12,1.14,1.62,1.69,1.84-.18.73-.26,1.92.62,3.14.52.71,1.33,1.08,2.35,1.08.64,0,1.25-.15,1.66-.27.01,0,.02,0,.03,0,.09-.03.17-.05.24-.08.51.29,1.58.82,2.66.82.72,0,1.33-.22,1.81-.67,1.1-1.02,1.26-2.21,1.22-2.96.46-.09,1.04-.32,1.58-.89.44-.46.75-1.03.93-1.69.17-.59.09-1.17-.22-1.65-.47-.74-1.37-1.13-1.96-1.31.09-1.33-.27-3.32-2.15-3.97-.35-.12-.71-.18-1.05-.18-.69,0-1.24.24-1.63.48-.38-.4-1.03-.84-2-.84h0Z"/>
          </g>
          <path class="cls-4" d="M31.13,18.63s-.85,1.59.33,3.2c1.08,1.48,3.46.57,3.86.41.38.24,2.66,1.6,4,.37,1.47-1.35.95-3.07.95-3.07,0,0,.99.15,1.82-.74-.65.25-1.57.53-2.17.37-1-.25-1.29-.6-1.46-1.52-.17-.91-1.53-2.09-3.18-1.95-1.65.14-2.36,1.34-2.59,1.77-.24.43-2.61.93-3.46-.48.58,1.58,1.91,1.64,1.91,1.64Z"/>
          <path class="cls-1" d="M28.99,15.98c.04.39.12.73.23,1.02.58,1.58,1.91,1.64,1.91,1.64,0,0-.84,1.59.33,3.2.85,1.17,2.52.85,3.38.58-.69.08-2,.09-2.89-.69-1.28-1.11-.29-3.4-.29-3.4,0,0-.41.1-1.12-.22-.71-.31-1.64-2.4-.75-3.22.89-.83,2.45-.33,2.48-.31.03.02-.32-3.08,1.51-3.29,1.83-.21,2.6,1.5,2.6,1.5,0,0,.69-1.88,2.49-1.08,1.8.8,1.28,3.41,1.34,3.51.06.1,2.73.77,2.03,2.39-.69,1.62-2.62,1.55-2.62,1.55,0,0,.76,1.8-.55,3.02-1.31,1.22-3.74.06-3.74.06.38.24,2.66,1.6,4.01.37,1.46-1.35.95-3.08.95-3.08,0,0,.99.15,1.82-.74.3-.32.61-.78.79-1.45.52-1.87-2.26-2.35-2.26-2.35,0,0,.57-3.08-1.69-3.85-1.42-.49-2.36.35-2.6.59-.18-.32-.83-1.26-2.27-1.07-2.36.31-2.41,3.45-2.41,3.45,0,0-2.95-.71-2.67,1.86Z"/>
          <g>
            <path class="cls-6" d="M36.36,14.81s0,0,0,0c.04.46.26.85.62,1.02.06.03.13.05.2.07h0c.61.13,1.35-.35,1.73-1.16.31-.66.3-1.35.03-1.8h0s0,0,0,0c-.1-.17-.24-.3-.42-.38-.57-.27-1.33.09-1.78.82-.06.09-.1.18-.15.27-.19.39-.26.8-.23,1.16Z"/>
            <path class="cls-4" d="M36.36,14.81c.04.46.26.85.62,1.02.64.3,1.51-.19,1.93-1.09.42-.9.25-1.88-.39-2.18-.57-.27-1.33.09-1.78.82,0,0,.84-.61,1.32-.11.48.5.43,1.5-.2,2.07-.64.56-1.38.1-1.49-.52Z"/>
            <polygon class="cls-8" points="38.93 12.94 38.93 12.94 38.93 12.94 38.93 12.94"/>
            <path class="cls-8" d="M38.41,13.61c.02-.2.16-.34.3-.33.15.01.25.19.23.38-.02.2-.16.34-.3.33-.15-.01-.25-.19-.23-.38Z"/>
          </g>
          <g>
            <path class="cls-6" d="M35.35,14.71s0,0,0,0c-.13.45-.42.78-.8.87-.07.02-.14.02-.21.03h0c-.63,0-1.25-.6-1.47-1.47-.17-.7-.03-1.38.33-1.77h0s0,0,0,0c.13-.14.3-.25.48-.29.62-.15,1.28.35,1.59,1.15.04.09.07.19.09.3.1.42.09.84,0,1.18Z"/>
            <path class="cls-4" d="M35.35,14.71c-.13.45-.42.78-.8.87-.69.17-1.44-.48-1.68-1.45-.24-.97.13-1.89.81-2.06.62-.15,1.28.35,1.59,1.15,0,0-.7-.76-1.27-.36-.57.4-.72,1.39-.2,2.07.52.68,1.33.37,1.56-.22Z"/>
            <polygon class="cls-8" points="33.19 12.37 33.19 12.37 33.19 12.37 33.19 12.37"/>
            <path class="cls-8" d="M33.57,13.13c.02-.2-.08-.37-.23-.38-.15-.01-.28.13-.3.33-.02.2.08.37.23.38.15.01.28-.13.3-.33Z"/>
          </g>
          <g>
            <path class="cls-6" d="M32.24,16.69s0,0,0,0c.03.37-.08.71-.34.9-.05.03-.1.06-.15.08h0c-.47.19-1.12-.07-1.54-.66-.34-.47-.44-1.03-.29-1.42h0s0,0,0,0c.06-.15.15-.27.27-.36.42-.3,1.07-.12,1.53.38.06.06.11.13.16.19.21.29.32.6.35.89Z"/>
            <path class="cls-4" d="M32.24,16.69c.03.37-.08.71-.34.9-.47.33-1.22.08-1.69-.58-.47-.65-.47-1.45-.01-1.79.42-.3,1.07-.12,1.53.38,0,0-.76-.36-1.06.11-.31.47-.12,1.26.47,1.61.59.35,1.11-.13,1.1-.64Z"/>
            <polygon class="cls-8" points="29.92 15.59 29.92 15.59 29.92 15.59 29.92 15.59"/>
            <path class="cls-8" d="M30.43,16.04c-.04-.15-.17-.25-.29-.22-.12.03-.17.18-.13.34.04.15.17.25.29.22.12-.03.17-.18.13-.34Z"/>
          </g>
          <g>
            <path class="cls-6" d="M39.2,17.38s0,0,0,0c-.11.36-.06.71.16.95.04.04.08.08.13.11h0c.42.28,1.11.15,1.64-.35.43-.4.63-.92.56-1.34h0s0,0,0,0c-.03-.16-.09-.3-.2-.41-.35-.37-1.02-.33-1.58.08-.07.05-.13.1-.19.16-.26.24-.43.52-.52.8Z"/>
            <path class="cls-4" d="M39.2,17.38c-.11.36-.06.71.16.95.39.42,1.18.31,1.77-.24.59-.55.75-1.33.36-1.75-.35-.37-1.02-.33-1.58.08,0,0,.81-.21,1.02.32.21.52-.13,1.26-.77,1.49-.65.23-1.06-.34-.96-.84Z"/>
            <polygon class="cls-8" points="41.69 16.75 41.69 16.75 41.69 16.75 41.69 16.75"/>
            <path class="cls-8" d="M41.1,17.09c.07-.14.22-.21.33-.16.11.06.13.21.06.36-.07.14-.22.21-.33.16-.11-.06-.13-.21-.06-.36Z"/>
          </g>
          <g>
            <path class="cls-6" d="M31.91,20.46c.21.52.52.77.87.88h0c.52.16,1.11-.03,1.55-.2.75-.28,1.66-.19,2.33.23.36.23.83.49,1.32.5,0,0,0,0,0,0,.42.02.84-.15,1.2-.69.39-.58.31-1.05.08-1.41h0c-.23-.37-.62-.63-.85-.79-.05-.04-.1-.1-.14-.17h0c-.32-.58-.43-2.11-2.31-2.28-2.33-.31-2.36,1.44-2.79,1.86h0s-.06.05-.09.06c-.16.07-.39.17-.61.31t0,0c-.49.3-.93.81-.57,1.7Z"/>
            <path class="cls-4" d="M31.91,20.46c.53,1.29,1.68.97,2.43.68.75-.28,1.66-.19,2.33.23.68.42,1.74.97,2.52-.19.39-.58.31-1.05.08-1.41,0,.06.08,1.15-.97,1.34-1.08.2-1.47-.96-2.67-1.09-1.2-.13-1.7.7-2.4.69-.7-.01-1.67-.98-.75-1.95-.49.3-.93.81-.57,1.7Z"/>
            <path class="cls-4" d="M33.18,18.39c2.96,1.79,5.1.42,5.1.42h0c-.32-.58-.43-2.11-2.31-2.28-2.33-.31-2.36,1.44-2.79,1.86Z"/>
            <path class="cls-3" d="M35.08,17.71c-.02.21.19.4.46.43.28.03.52-.12.54-.33.02-.21-.19-.4-.46-.43-.28-.03-.52.12-.54.33Z"/>
          </g>
        </g>
      </g>
    </g>
  </g>
</svg>