<?xml version="1.0" encoding="UTF-8"?>
<svg xmlns="http://www.w3.org/2000/svg" xmlns:xlink="http://www.w3.org/1999/xlink" viewBox="0 0 26.1 53.04">
  <defs>
    <style>
      .cls-1 {
        fill: #918c9c;
      }

      .cls-2 {
        fill: url(#linear-gradient-2);
      }

      .cls-3 {
        fill: #fff;
      }

      .cls-3, .cls-4 {
        mix-blend-mode: overlay;
      }

      .cls-5 {
        fill: url(#linear-gradient);
      }

      .cls-4 {
        fill: #ebc9ff;
      }

      .cls-6 {
        fill: #ddc4ec;
      }

      .cls-7 {
        isolation: isolate;
      }

      .cls-8 {
        mix-blend-mode: multiply;
      }

      .cls-9 {
        fill: #bf8fd9;
      }

      .cls-10 {
        fill: #ecd7f7;
      }
    </style>
    <linearGradient id="linear-gradient" x1="12.91" y1="41.61" x2="4.5" y2="15.08" gradientUnits="userSpaceOnUse">
      <stop offset="0" stop-color="#dad5e7"/>
      <stop offset=".23" stop-color="#e7e4ef"/>
      <stop offset=".49" stop-color="#fcfcfc"/>
      <stop offset=".74" stop-color="#edebf3"/>
      <stop offset="1" stop-color="#dad5e7"/>
    </linearGradient>
    <linearGradient id="linear-gradient-2" x1="22.59" y1="36.44" x2="9.61" y2="9.57" gradientUnits="userSpaceOnUse">
      <stop offset="0" stop-color="#dad5e7"/>
      <stop offset=".23" stop-color="#e7e4ef"/>
      <stop offset=".49" stop-color="#fcfcfc"/>
      <stop offset=".62" stop-color="#ecebee"/>
      <stop offset=".87" stop-color="#c4c1cc"/>
      <stop offset="1" stop-color="#ada9b8"/>
    </linearGradient>
  </defs>
  <g class="cls-7">
    <g id="Layer_2" data-name="Layer 2">
      <g id="Layer_1-2" data-name="Layer 1">
        <g>
          <g>
            <path class="cls-5" d="M6.7,52.71c-.09,0-.17-.03-.23-.1-.05-.05-4.99-5.07-5.76-12.79-.72-7.23-.28-11.73.15-12.02.05-.04.2-.07.26-.07.14,0,.33.06.52.13-.14-1.38-.46-4.82-.29-6.49.03-.32.14-1.3.83-1.3.13,0,.26.04.37.11-.08-1.47-.06-4.45,1.01-7.53.73-2.11,1.23-4.21,1.59-5.74.49-2.07.62-2.63,1.07-2.63.06,0,.14.02.19.05.3.16.79.77,1.15,1.25.41-1.21,1.44-3.8,3.13-5.17.06-.05.13-.07.21-.07.03,0,.05,0,.08,0,.1.02.18.09.23.19.02.04,1.98,4.46,3.95,11.44.7,2.48,1.99,6.11,3.36,9.96,2.57,7.23,5.23,14.71,4.94,17.15-.46,3.83-13.91,12.98-16.68,13.63-.03,0-.05,0-.08,0Z"/>
            <path class="cls-1" d="M10.91.66s1.95,4.35,3.93,11.39c1.98,7.04,8.72,23.31,8.28,26.98-.44,3.67-13.93,12.76-16.42,13.34,0,0-4.89-4.89-5.66-12.59s-.16-11.6,0-11.71c.02-.01.04-.02.08-.02.26,0,.91.35.91.35,0,0-.57-4.95-.35-7,.08-.77.28-1.01.5-1.01.37,0,.78.68.78.68,0,0-.55-4.11.92-8.32,1.43-4.11,1.95-8.15,2.35-8.15.01,0,.02,0,.03,0,.4.22,1.43,1.69,1.43,1.69,0,0,1.08-3.9,3.22-5.64M10.91,0c-.15,0-.3.05-.42.15-1.51,1.22-2.51,3.38-3.03,4.74-.31-.38-.64-.73-.88-.86-.1-.05-.24-.09-.35-.09-.72,0-.86.61-1.4,2.88-.36,1.53-.85,3.61-1.58,5.71-.99,2.83-1.1,5.59-1.05,7.2,0,0-.02,0-.02,0-.66,0-1.05.54-1.16,1.6-.16,1.52.08,4.48.24,6.07-.05,0-.1-.01-.14-.01-.17,0-.32.04-.45.13-.76.51-.9,6.27-.29,12.33.78,7.84,5.65,12.79,5.85,13,.13.13.3.19.47.19.05,0,.1,0,.15-.02,2.36-.56,16.42-9.63,16.93-13.91.3-2.52-2.37-10.04-4.95-17.3-1.37-3.84-2.66-7.47-3.35-9.94C13.51,4.87,11.54.44,11.52.39c-.08-.19-.25-.33-.45-.37-.05-.01-.1-.02-.15-.02h0Z"/>
          </g>
          <g>
            <path class="cls-6" d="M10.14,45.63c-.6,0-.98-.59-1.19-1.11-.37.42-.86.86-1.26.86-.11,0-.21-.03-.3-.08-.36-.21-.78-1.44-1.24-3.68-.53.4-1.36.94-2,.94-.38,0-.67-.18-.83-.5-.53-1.05.54-5.12.83-6.18-.38-1.24-1.14-3.93-.76-4.62.14-.25.46-.55,1.13-.55.11,0,.22,0,.32.02-.12-1.09-.07-1.76.17-2.01.13-.14.31-.22.52-.22.1,0,.21.02.3.05.1-1.72.35-4.66.96-5.15.17-.13.35-.19.54-.19.49,0,.89.42,1.17.74.05-.1.11-.22.16-.33.36-.77.91-1.92,1.73-2.96,1.01-1.28,2.75-1.51,3.69-1.53h0c.35,0,.56.02.56.02.12.01.23.08.29.18.17.28,4.05,6.87,4.22,7.21.04.07,3.07,9.17,3.04,10.14-.04.98-2.41,4.29-5.48,6.69-.64.5-1.23.82-1.8.98-.29.08-.58.12-.86.12-.94,0-1.59-.46-1.96-.84-.43.75-1.17,1.87-1.85,1.97-.02,0-.11,0-.13,0Z"/>
            <path class="cls-9" d="M14.11,19.51c.32,0,.52.02.52.02,0,0,4.04,6.86,4.21,7.19.16.33,3.02,9.16,3,9.96-.03.79-2.31,4.04-5.34,6.4-.63.49-1.18.78-1.67.92-.27.08-.53.11-.76.11-1.37,0-2.02-1.14-2.02-1.14,0,0-1.1,2.17-1.84,2.28-.02,0-.05,0-.07,0-.7,0-1.05-1.52-1.05-1.52,0,0-.92,1.27-1.41,1.27-.04,0-.08,0-.11-.03-.44-.25-1.18-4.04-1.18-4.04,0,0-1.41,1.25-2.24,1.25-.21,0-.39-.08-.5-.29-.51-1.02.89-6.02.89-6.02,0,0-1.18-3.79-.82-4.43.16-.28.49-.36.81-.36.39,0,.76.12.76.12,0,0-.28-1.93,0-2.23.07-.07.15-.1.25-.1.29,0,.65.26.65.26,0,0,.22-4.94.85-5.44.1-.08.2-.11.3-.11.55,0,1.08.94,1.24.94.2,0,.83-2.01,2.12-3.63.94-1.19,2.58-1.37,3.41-1.39M14.11,18.76s-.01,0-.02,0c-1.24.03-2.93.34-3.98,1.67-.79.99-1.35,2.13-1.7,2.87-.28-.25-.63-.46-1.06-.46-.27,0-.53.09-.76.26-.22.17-.82.65-1.09,5.02-.3.01-.57.13-.76.35-.14.14-.41.43-.3,1.86-.84.03-1.22.47-1.37.74-.13.23-.51.9.69,4.81-.46,1.69-1.33,5.24-.78,6.34.22.45.65.71,1.17.71.57,0,1.22-.33,1.75-.68.66,3.01,1.07,3.24,1.3,3.37.15.08.31.13.48.13.35,0,.75-.2,1.17-.59.28.45.69.84,1.28.84.06,0,.12,0,.18-.01.7-.1,1.38-.95,1.89-1.77.44.33,1.06.64,1.87.64.31,0,.64-.05.96-.14.61-.18,1.24-.52,1.93-1.05,2.98-2.32,5.58-5.77,5.63-6.96.03-1.12-3.04-10.25-3.07-10.32-.18-.36-3.82-6.54-4.24-7.24-.12-.21-.33-.34-.57-.37,0,0-.23-.02-.59-.02h0Z"/>
          </g>
          <g class="cls-8">
            <path class="cls-10" d="M24.2,35.56c-.03.68-1.98,3.46-4.58,5.48-.54.42-1.01.67-1.43.79-1.61.45-2.38-.88-2.38-.88,0,0-.94,1.86-1.58,1.95-.64.09-.96-1.29-.96-1.29,0,0-.93,1.28-1.3,1.06s-1.01-3.46-1.01-3.46c0,0-1.91,1.7-2.35.82s.76-5.16.76-5.16c0,0-1.01-3.25-.7-3.8.31-.54,1.35-.21,1.35-.21,0,0-.24-1.65,0-1.91.23-.26.77.14.77.14,0,0,.19-4.23.73-4.66.55-.42,1.16.71,1.32.71.17,0,.71-1.72,1.82-3.11.81-1.02,2.21-1.17,2.92-1.19.27,0,.45.02.45.02,0,0,3.46,5.88,3.61,6.16.14.28,2.59,7.85,2.57,8.53Z"/>
          </g>
          <path class="cls-4" d="M14.83,44c-1.88.53-2.78-1.03-2.78-1.03,0,0-1.1,2.17-1.84,2.28-.75.11-1.12-1.51-1.12-1.51,0,0-1.08,1.49-1.52,1.24s-1.18-4.04-1.18-4.04c0,0-2.23,1.98-2.74.96s.89-6.02.89-6.02c0,0-1.18-3.79-.82-4.43.36-.63,1.57-.24,1.57-.24,0,0-.28-1.93,0-2.23.27-.3.9.16.9.16,0,0,.22-4.94.85-5.44.64-.49,1.35.83,1.54.83.2,0,.83-2.01,2.12-3.63.94-1.19,2.58-1.37,3.41-1.39l-1.42.71s-1.21.8-2.26,2.8c-1.04,2-1.4,2.86-1.4,2.86,0,0-1.24-1.34-1.49-.88-.26.45-.51,4.96-.51,4.96,0,0-.98-.47-1.13-.19-.15.28,0,2.51,0,2.51,0,0-.83-.53-1.19,0-.36.53.64,3.45.64,3.45,0,0-.96,4.83-.83,5.19s2.36-.85,2.36-.85c0,0,.74,3.47.94,3.68.19.21,1.66-.98,1.66-.98,0,0,.12,1.3.7,1.51.57.21,1.83-1.89,1.83-1.89,0,0,.89,1.87,2.78,1.61h.04Z"/>
          <g>
            <path class="cls-2" d="M20.88,38.73c-3.24,0-4.85-2.32-4.91-2.42-.06-.09-.07-.21-.03-.31.04-.1.13-.18.24-.2.71-.14,1.43-.37,1.68-.52-.2-.34-1.06-1.19-1.83-1.85-.09-.08-.13-.19-.11-.3.02-.11.09-.21.2-.25.34-.14.69-.34.85-.47-.07-.06-.15-.12-.23-.19-.97-.79-3.55-2.88-4.86-7.64-.03-.12,0-.26.11-.34.06-.05.14-.08.21-.08.05,0,.1.01.14.03.23.11.67.28.95.31-.08-.44-.43-1.5-.69-2.3-.57-1.73-.95-2.91-.91-3.45.03-.48.32-.77.76-.77.19,0,.4.06.59.13-.28-1.17-.77-3.65-.86-7.34-.14-5.12-.87-7.91-1.57-9.97,0,0,0,0,0,0-.01-.04-.02-.08-.02-.12,0-.16.12-.3.28-.33.02,0,.04,0,.05,0,.12,0,.23.07.29.17.16.15,2.59,2.64,4.39,9.11.73,2.61,2.42,5.63,4.22,8.82,2.6,4.62,5.54,9.85,5.91,14.76.02.21.03.42.04.64,0,.1-.6,4.55-4.3,4.86-.2.02-.4.03-.59.03Z"/>
            <path class="cls-1" d="M10.92.67s0,0,0,.01c0,0,0,0,0-.01M10.92.68s0,.01.02.02c.28.27,2.59,2.72,4.34,9.01,1.82,6.53,9.5,15.37,10.12,23.52.02.21.03.42.04.63,0,0-.52,4.22-4,4.51-.19.02-.38.02-.56.02-3.1,0-4.64-2.27-4.64-2.27,0,0,1.75-.35,1.97-.72.22-.36-1.97-2.23-1.97-2.23,0,0,1.13-.48,1.13-.81s-3.55-1.98-5.17-7.88c0,0,.72.35,1.16.35.1,0,.18-.02.24-.06.33-.22-1.65-4.98-1.58-6.01.02-.34.2-.46.43-.46.46,0,1.11.46,1.11.46,0,0-.92-2.81-1.05-8.01-.14-5.18-.88-7.98-1.59-10.07M10.92.01s-.07,0-.11,0c-.32.05-.56.32-.56.65,0,.07.01.15.04.22,0,0,0,0,0,0,.69,2.03,1.41,4.8,1.55,9.87.08,3.23.46,5.55.75,6.88-.05,0-.09,0-.14,0-.62,0-1.05.42-1.09,1.08-.04.6.32,1.76.93,3.58.18.55.41,1.23.55,1.73-.12-.04-.24-.09-.35-.14-.09-.04-.19-.06-.28-.06-.15,0-.31.05-.43.16-.2.17-.28.43-.21.68,1.28,4.66,3.76,6.82,4.84,7.7-.13.07-.28.14-.42.2-.21.09-.36.28-.4.51-.03.23.05.46.23.61.6.51,1.2,1.09,1.53,1.47-.32.11-.78.24-1.23.33-.22.04-.4.19-.48.4-.08.21-.06.44.06.62.07.1,1.77,2.57,5.19,2.57.2,0,.41,0,.62-.03,3.18-.26,4.4-3.45,4.6-5.09,0-.04,0-.08,0-.11-.01-.22-.02-.44-.04-.66-.38-4.98-3.34-10.24-5.95-14.89-1.79-3.18-3.47-6.17-4.19-8.75C14.14,3.13,11.8.62,11.43.25c-.13-.15-.31-.24-.51-.24h0Z"/>
          </g>
          <path class="cls-3" d="M25.4,33.23c-1.33-5.54-4.11-9.82-6.39-13.72-2.3-3.94-3.11-5.12-4.43-10.27-1.24-4.83-3.38-8.14-3.64-8.54.28.27,2.59,2.72,4.34,9.01,1.82,6.53,9.5,15.37,10.12,23.52Z"/>
        </g>
      </g>
    </g>
  </g>
</svg>